# xmcd CD database file
#
# Track frame offsets:
#	183
#	3578
#	47610
#	104295
#	146673
#	159328
#
# Disc length: 2620 seconds
#
# Revision: 0
# Processed by: cddbd v1.5.2PL0 Copyright (c) Steve Scherf et al.
# Submitted via: CDex 1.70beta2
#
DISCID=440a3a06
DTITLE=Dizzy Gillespie - At Montreux, 1980
DYEAR=1980
DGENRE=Jazz
TTITLE0=Introduction By Claude Nobs
TTITLE1=Christopher Columbus
TTITLE2=I'm Sitting On The Top Of This World
TTITLE3=Manteca
TTITLE4=Get That Booty
TTITLE5=Kisses
EXTD=YEAR: 1980
EXTT0=
EXTT1=
EXTT2=
EXTT3=
EXTT4=
EXTT5=
PLAYORDER=
